<svg width="91" height="91" viewBox="0 0 91 91" fill="none" xmlns="http://www.w3.org/2000/svg">
    <path d="M68.3211 1.82126C68.5824 1.55934 68.8928 1.35154 69.2345 1.20975C69.5761 1.06796 69.9424 0.99498 70.3124 0.99498C70.6823 0.99498 71.0486 1.06796 71.3903 1.20975C71.732 1.35154 72.0424 1.55934 72.3036 1.82126L89.1786 18.6963C89.4406 18.9575 89.6484 19.2679 89.7901 19.6096C89.9319 19.9513 90.0049 20.3176 90.0049 20.6875C90.0049 21.0574 89.9319 21.4238 89.7901 21.7654C89.6484 22.1071 89.4406 22.4175 89.1786 22.6788L32.9286 78.9288C32.6587 79.1968 32.3372 79.4073 31.9836 79.5475L3.85864 90.7975C3.34753 91.0021 2.78761 91.0522 2.24831 90.9415C1.709 90.8309 1.21403 90.5644 0.82474 90.1752C0.435453 89.7859 0.168977 89.2909 0.0583479 88.7516C-0.0522815 88.2123 -0.00219928 87.6524 0.202386 87.1413L11.4524 59.0163C11.5926 58.6627 11.8031 58.3412 12.0711 58.0713L68.3211 1.82126V1.82126ZM63.0393 15.0625L75.9374 27.9606L83.2105 20.6875L70.3124 7.78938L63.0393 15.0625ZM71.9605 31.9375L59.0624 19.0394L22.4999 55.6019V57.25H25.3124C26.0583 57.25 26.7737 57.5463 27.3011 58.0738C27.8286 58.6012 28.1249 59.3166 28.1249 60.0625V62.875H30.9374C31.6833 62.875 32.3987 63.1713 32.9261 63.6988C33.4536 64.2262 33.7499 64.9416 33.7499 65.6875V68.5H35.398L71.9605 31.9375V31.9375ZM17.0549 61.0469L16.4586 61.6431L7.86364 83.1363L29.3568 74.5413L29.953 73.945C29.4165 73.7445 28.954 73.3851 28.6273 72.9146C28.3006 72.4442 28.1253 71.8852 28.1249 71.3125V68.5H25.3124C24.5665 68.5 23.8511 68.2037 23.3236 67.6762C22.7962 67.1488 22.4999 66.4334 22.4999 65.6875V62.875H19.6874C19.1146 62.8746 18.5557 62.6993 18.0853 62.3726C17.6148 62.0459 17.2553 61.5834 17.0549 61.0469V61.0469Z" fill="black"/>
</svg>
