<svg width="90" height="90" viewBox="0 0 90 90" fill="none" xmlns="http://www.w3.org/2000/svg">
    <path d="M30.9375 30.9375C31.6834 30.9375 32.3988 31.2338 32.9262 31.7613C33.4537 32.2887 33.75 33.0041 33.75 33.75V67.5C33.75 68.2459 33.4537 68.9613 32.9262 69.4887C32.3988 70.0162 31.6834 70.3125 30.9375 70.3125C30.1916 70.3125 29.4762 70.0162 28.9488 69.4887C28.4213 68.9613 28.125 68.2459 28.125 67.5V33.75C28.125 33.0041 28.4213 32.2887 28.9488 31.7613C29.4762 31.2338 30.1916 30.9375 30.9375 30.9375ZM45 30.9375C45.7459 30.9375 46.4613 31.2338 46.9887 31.7613C47.5162 32.2887 47.8125 33.0041 47.8125 33.75V67.5C47.8125 68.2459 47.5162 68.9613 46.9887 69.4887C46.4613 70.0162 45.7459 70.3125 45 70.3125C44.2541 70.3125 43.5387 70.0162 43.0113 69.4887C42.4838 68.9613 42.1875 68.2459 42.1875 67.5V33.75C42.1875 33.0041 42.4838 32.2887 43.0113 31.7613C43.5387 31.2338 44.2541 30.9375 45 30.9375ZM61.875 33.75C61.875 33.0041 61.5787 32.2887 61.0512 31.7613C60.5238 31.2338 59.8084 30.9375 59.0625 30.9375C58.3166 30.9375 57.6012 31.2338 57.0738 31.7613C56.5463 32.2887 56.25 33.0041 56.25 33.75V67.5C56.25 68.2459 56.5463 68.9613 57.0738 69.4887C57.6012 70.0162 58.3166 70.3125 59.0625 70.3125C59.8084 70.3125 60.5238 70.0162 61.0512 69.4887C61.5787 68.9613 61.875 68.2459 61.875 67.5V33.75Z" fill="black"/>
    <path fill-rule="evenodd" clip-rule="evenodd" d="M81.5625 16.875C81.5625 18.3668 80.9699 19.7976 79.915 20.8525C78.8601 21.9074 77.4293 22.5 75.9375 22.5H73.125V73.125C73.125 76.1087 71.9397 78.9702 69.8299 81.0799C67.7202 83.1897 64.8587 84.375 61.875 84.375H28.125C25.1413 84.375 22.2798 83.1897 20.17 81.0799C18.0603 78.9702 16.875 76.1087 16.875 73.125V22.5H14.0625C12.5707 22.5 11.1399 21.9074 10.085 20.8525C9.03013 19.7976 8.4375 18.3668 8.4375 16.875V11.25C8.4375 9.75816 9.03013 8.32742 10.085 7.27252C11.1399 6.21763 12.5707 5.625 14.0625 5.625H33.75C33.75 4.13316 34.3426 2.70242 35.3975 1.64752C36.4524 0.592632 37.8832 0 39.375 0L50.625 0C52.1168 0 53.5476 0.592632 54.6025 1.64752C55.6574 2.70242 56.25 4.13316 56.25 5.625H75.9375C77.4293 5.625 78.8601 6.21763 79.915 7.27252C80.9699 8.32742 81.5625 9.75816 81.5625 11.25V16.875ZM23.1637 22.5L22.5 22.8319V73.125C22.5 74.6168 23.0926 76.0476 24.1475 77.1025C25.2024 78.1574 26.6332 78.75 28.125 78.75H61.875C63.3668 78.75 64.7976 78.1574 65.8525 77.1025C66.9074 76.0476 67.5 74.6168 67.5 73.125V22.8319L66.8363 22.5H23.1637ZM14.0625 16.875V11.25H75.9375V16.875H14.0625Z" fill="black"/>
</svg>
