<svg width="66" height="40" viewBox="0 0 66 40" fill="none" xmlns="http://www.w3.org/2000/svg">
    <path id="W." fill-rule="evenodd" clip-rule="evenodd" d="M41.2599 0.979996C41.4559 0.793327 41.7126 0.699993 42.0299 0.699993H52.5859C52.9032 0.699993 53.1646 0.793327 53.3699 0.979996C53.5752 1.16666 53.6779 1.43732 53.6779 1.79199V3.612C53.6779 3.89199 53.7012 4.13932 53.7479 4.35399C53.7946 4.56866 53.8739 4.89066 53.9859 5.31999L61.8259 35.728C61.9566 36.2133 62.1152 36.568 62.3019 36.792C62.4886 37.016 62.7592 37.1933 63.1139 37.324L64.3459 37.716C64.5886 37.828 64.7659 37.982 64.8779 38.178C64.9899 38.374 65.0459 38.584 65.0459 38.808C65.0459 39.144 64.9339 39.41 64.7099 39.606C64.4859 39.802 64.1499 39.9 63.7019 39.9H47.4899C47.0232 39.9 46.6779 39.802 46.4539 39.606C46.2299 39.41 46.1179 39.144 46.1179 38.808C46.1179 38.304 46.3699 37.968 46.8739 37.8L48.3299 37.464C48.7032 37.352 48.9366 37.1233 49.0299 36.778L49.0588 36.6435C49.1119 36.3178 49.0649 35.91 48.9179 35.42L42.4159 9.51099L36.8629 28.986L38.6139 35.728C38.7819 36.3253 38.9359 36.7267 39.0759 36.932C39.2159 37.1373 39.4166 37.2867 39.6779 37.38L40.8539 37.8C41.1339 37.912 41.3346 38.0473 41.4559 38.206C41.5772 38.3647 41.6379 38.556 41.6379 38.78C41.6379 39.1347 41.5212 39.41 41.2879 39.606C41.0546 39.802 40.7139 39.9 40.2659 39.9L24.3899 39.9C23.9232 39.9 23.5779 39.802 23.3539 39.606C23.1299 39.41 23.0179 39.1347 23.0179 38.78C23.0179 38.5373 23.0879 38.3273 23.2279 38.15C23.3679 37.9727 23.5872 37.828 23.8859 37.716L25.1179 37.38C25.4726 37.268 25.6966 37.0673 25.7899 36.778L25.8165 36.6748C25.8755 36.3817 25.8386 35.9447 25.7059 35.364L19.2289 9.55399L13.6939 33.04C13.4512 34.0667 13.5212 34.9627 13.9039 35.728C14.2866 36.4933 15.0379 37.0813 16.1579 37.492L16.7739 37.716C17.0352 37.8467 17.2266 37.9913 17.3479 38.15C17.4692 38.3087 17.5299 38.5187 17.5299 38.78C17.5299 39.116 17.4132 39.3867 17.1799 39.592C16.9466 39.7973 16.5966 39.9 16.1299 39.9H7.2259C6.75923 39.9 6.40923 39.7973 6.1759 39.592C5.94257 39.3867 5.8259 39.116 5.8259 38.78C5.8259 38.5187 5.8959 38.3087 6.0359 38.15C6.1759 37.9913 6.4139 37.828 6.7499 37.66L7.4219 37.352C8.24323 36.9973 8.97123 36.442 9.6059 35.686C10.2406 34.93 10.7072 33.9267 11.0059 32.676L17.2219 5.76799C17.3526 5.28266 17.4412 4.89533 17.4879 4.606C17.5346 4.31666 17.5579 3.98533 17.5579 3.612V1.79199C17.5579 1.43732 17.6606 1.16666 17.8659 0.979996C18.0712 0.793327 18.3232 0.699993 18.6219 0.699993H29.3179C29.6352 0.699993 29.8919 0.793327 30.0879 0.979996C30.2839 1.16666 30.3819 1.43732 30.3819 1.79199V3.612C30.3819 3.87333 30.4052 4.11132 30.4519 4.32599L30.4745 4.42514C30.5248 4.63771 30.6059 4.93599 30.7179 5.31999L35.5399 23.89L40.6299 5.76799C40.7232 5.45066 40.8026 5.12399 40.8679 4.78799C40.9332 4.452 40.9659 4.06 40.9659 3.612V1.79199C40.9659 1.43732 41.0639 1.16666 41.2599 0.979996ZM4.0199 0.867996C4.96257 0.28933 6.03123 -7.62939e-06 7.2259 -7.62939e-06C8.38323 -7.62939e-06 9.43323 0.28933 10.3759 0.867996C11.3186 1.44666 12.0652 2.22599 12.6159 3.20599C13.1666 4.18599 13.4419 5.24533 13.4419 6.384C13.4419 7.54133 13.1666 8.59599 12.6159 9.54799C12.0652 10.5 11.3186 11.2607 10.3759 11.83C9.43323 12.3993 8.38323 12.684 7.2259 12.684C6.03123 12.684 4.96257 12.3993 4.0199 11.83C3.07723 11.2607 2.33057 10.5 1.7799 9.54799C1.22923 8.59599 0.953896 7.54133 0.953896 6.384C0.953896 5.24533 1.22923 4.18599 1.7799 3.20599C2.33057 2.22599 3.07723 1.44666 4.0199 0.867996Z" fill="#00001A"/>
</svg>
